<svg xmlns="http://www.w3.org/2000/svg" xmlns:xlink="http://www.w3.org/1999/xlink" width="500" zoomAndPan="magnify" viewBox="0 0 375 374.999991" height="500" preserveAspectRatio="xMidYMid meet" version="1.2"><defs><clipPath id="1a40f7180a"><path d="M 75.847656 42.851562 L 298.898438 42.851562 L 298.898438 230.371094 L 75.847656 230.371094 Z M 75.847656 42.851562 "/></clipPath></defs><g id="cea29ea2d7"><g style="fill:#1d3557;fill-opacity:1;"><g transform="translate(69.131433, 282.927754)"><path style="stroke:none" d="M 3.609375 -30.390625 L 10.640625 -30.390625 L 10.640625 -5.734375 L 25.875 -5.734375 L 25.875 0 L 3.609375 0 Z M 3.609375 -30.390625 "/></g></g><g style="fill:#1d3557;fill-opacity:1;"><g transform="translate(99.682739, 282.927754)"><path style="stroke:none" d="M 23.609375 -6.515625 L 9.5 -6.515625 L 6.8125 0 L -0.390625 0 L 13.15625 -30.390625 L 20.09375 -30.390625 L 33.6875 0 L 26.296875 0 Z M 21.40625 -11.84375 L 16.578125 -23.484375 L 11.765625 -11.84375 Z M 21.40625 -11.84375 "/></g></g><g style="fill:#1d3557;fill-opacity:1;"><g transform="translate(137.263955, 282.927754)"><path style="stroke:none" d="M 16.75 -30.390625 C 19.445312 -30.390625 21.785156 -29.9375 23.765625 -29.03125 C 25.742188 -28.132812 27.269531 -26.863281 28.34375 -25.21875 C 29.414062 -23.570312 29.953125 -21.617188 29.953125 -19.359375 C 29.953125 -17.128906 29.414062 -15.179688 28.34375 -13.515625 C 27.269531 -11.859375 25.742188 -10.585938 23.765625 -9.703125 C 21.785156 -8.816406 19.445312 -8.375 16.75 -8.375 L 10.640625 -8.375 L 10.640625 0 L 3.609375 0 L 3.609375 -30.390625 Z M 16.359375 -14.109375 C 18.472656 -14.109375 20.078125 -14.5625 21.171875 -15.46875 C 22.273438 -16.382812 22.828125 -17.679688 22.828125 -19.359375 C 22.828125 -21.066406 22.273438 -22.375 21.171875 -23.28125 C 20.078125 -24.195312 18.472656 -24.65625 16.359375 -24.65625 L 10.640625 -24.65625 L 10.640625 -14.109375 Z M 16.359375 -14.109375 "/></g></g><g style="fill:#1d3557;fill-opacity:1;"><g transform="translate(173.369765, 282.927754)"><path style="stroke:none" d="M 27.125 -5.640625 L 27.125 0 L 3.609375 0 L 3.609375 -30.390625 L 26.5625 -30.390625 L 26.5625 -24.734375 L 10.59375 -24.734375 L 10.59375 -18.140625 L 24.703125 -18.140625 L 24.703125 -12.671875 L 10.59375 -12.671875 L 10.59375 -5.640625 Z M 27.125 -5.640625 "/></g></g><g style="fill:#1d3557;fill-opacity:1;"><g transform="translate(206.8285, 282.927754)"><path style="stroke:none" d="M 18.1875 -10.765625 L 18.1875 0 L 11.15625 0 L 11.15625 -10.84375 L -0.609375 -30.390625 L 6.859375 -30.390625 L 14.96875 -16.890625 L 23.09375 -30.390625 L 30 -30.390625 Z M 18.1875 -10.765625 "/></g></g><g style="fill:#1d3557;fill-opacity:1;"><g transform="translate(240.504214, 282.927754)"><path style="stroke:none" d="M 22.96875 0 L 17.109375 -8.46875 L 10.640625 -8.46875 L 10.640625 0 L 3.609375 0 L 3.609375 -30.390625 L 16.75 -30.390625 C 19.445312 -30.390625 21.785156 -29.9375 23.765625 -29.03125 C 25.742188 -28.132812 27.269531 -26.863281 28.34375 -25.21875 C 29.414062 -23.570312 29.953125 -21.617188 29.953125 -19.359375 C 29.953125 -17.097656 29.40625 -15.148438 28.3125 -13.515625 C 27.226562 -11.878906 25.691406 -10.628906 23.703125 -9.765625 L 30.515625 0 Z M 22.828125 -19.359375 C 22.828125 -21.066406 22.273438 -22.375 21.171875 -23.28125 C 20.078125 -24.195312 18.472656 -24.65625 16.359375 -24.65625 L 10.640625 -24.65625 L 10.640625 -14.0625 L 16.359375 -14.0625 C 18.472656 -14.0625 20.078125 -14.523438 21.171875 -15.453125 C 22.273438 -16.378906 22.828125 -17.679688 22.828125 -19.359375 Z M 22.828125 -19.359375 "/></g></g><g style="fill:#1d3557;fill-opacity:1;"><g transform="translate(276.7402, 282.927754)"><path style="stroke:none" d="M 27.125 -5.640625 L 27.125 0 L 3.609375 0 L 3.609375 -30.390625 L 26.5625 -30.390625 L 26.5625 -24.734375 L 10.59375 -24.734375 L 10.59375 -18.140625 L 24.703125 -18.140625 L 24.703125 -12.671875 L 10.59375 -12.671875 L 10.59375 -5.640625 Z M 27.125 -5.640625 "/></g></g><g style="fill:#1d3557;fill-opacity:1;"><g transform="translate(69.626283, 324.116816)"><path style="stroke:none" d="M 19.0625 0 L 13.90625 -7.25 C 13.332031 -7.1875 12.734375 -7.15625 12.109375 -7.15625 L 6.046875 -7.15625 L 6.046875 0 L 3.671875 0 L 3.671875 -22.546875 L 12.109375 -22.546875 C 14.984375 -22.546875 17.234375 -21.859375 18.859375 -20.484375 C 20.492188 -19.109375 21.3125 -17.21875 21.3125 -14.8125 C 21.3125 -13.050781 20.863281 -11.5625 19.96875 -10.34375 C 19.082031 -9.132812 17.816406 -8.265625 16.171875 -7.734375 L 21.671875 0 Z M 12.046875 -9.171875 C 14.273438 -9.171875 15.976562 -9.664062 17.15625 -10.65625 C 18.34375 -11.644531 18.9375 -13.03125 18.9375 -14.8125 C 18.9375 -16.632812 18.34375 -18.035156 17.15625 -19.015625 C 15.976562 -19.992188 14.273438 -20.484375 12.046875 -20.484375 L 6.046875 -20.484375 L 6.046875 -9.171875 Z M 12.046875 -9.171875 "/></g></g><g style="fill:#1d3557;fill-opacity:1;"><g transform="translate(105.780513, 324.116816)"><path style="stroke:none" d="M 13.53125 0.1875 C 11.289062 0.1875 9.265625 -0.304688 7.453125 -1.296875 C 5.640625 -2.296875 4.222656 -3.664062 3.203125 -5.40625 C 2.179688 -7.144531 1.671875 -9.097656 1.671875 -11.265625 C 1.671875 -13.441406 2.179688 -15.394531 3.203125 -17.125 C 4.222656 -18.863281 5.640625 -20.234375 7.453125 -21.234375 C 9.265625 -22.234375 11.289062 -22.734375 13.53125 -22.734375 C 15.757812 -22.734375 17.769531 -22.238281 19.5625 -21.25 C 21.351562 -20.257812 22.765625 -18.890625 23.796875 -17.140625 C 24.828125 -15.398438 25.34375 -13.441406 25.34375 -11.265625 C 25.34375 -9.097656 24.828125 -7.140625 23.796875 -5.390625 C 22.765625 -3.640625 21.351562 -2.269531 19.5625 -1.28125 C 17.769531 -0.300781 15.757812 0.1875 13.53125 0.1875 Z M 13.53125 -1.9375 C 15.3125 -1.9375 16.921875 -2.335938 18.359375 -3.140625 C 19.796875 -3.941406 20.921875 -5.054688 21.734375 -6.484375 C 22.546875 -7.910156 22.953125 -9.503906 22.953125 -11.265625 C 22.953125 -13.023438 22.546875 -14.617188 21.734375 -16.046875 C 20.921875 -17.472656 19.796875 -18.585938 18.359375 -19.390625 C 16.921875 -20.203125 15.3125 -20.609375 13.53125 -20.609375 C 11.75 -20.609375 10.128906 -20.203125 8.671875 -19.390625 C 7.222656 -18.585938 6.085938 -17.472656 5.265625 -16.046875 C 4.441406 -14.617188 4.03125 -13.023438 4.03125 -11.265625 C 4.03125 -9.503906 4.441406 -7.910156 5.265625 -6.484375 C 6.085938 -5.054688 7.222656 -3.941406 8.671875 -3.140625 C 10.128906 -2.335938 11.75 -1.9375 13.53125 -1.9375 Z M 13.53125 -1.9375 "/></g></g><g style="fill:#1d3557;fill-opacity:1;"><g transform="translate(145.668926, 324.116816)"><path style="stroke:none" d="M 13.53125 0.1875 C 11.289062 0.1875 9.265625 -0.304688 7.453125 -1.296875 C 5.640625 -2.296875 4.222656 -3.664062 3.203125 -5.40625 C 2.179688 -7.144531 1.671875 -9.097656 1.671875 -11.265625 C 1.671875 -13.441406 2.179688 -15.394531 3.203125 -17.125 C 4.222656 -18.863281 5.640625 -20.234375 7.453125 -21.234375 C 9.265625 -22.234375 11.289062 -22.734375 13.53125 -22.734375 C 15.757812 -22.734375 17.769531 -22.238281 19.5625 -21.25 C 21.351562 -20.257812 22.765625 -18.890625 23.796875 -17.140625 C 24.828125 -15.398438 25.34375 -13.441406 25.34375 -11.265625 C 25.34375 -9.097656 24.828125 -7.140625 23.796875 -5.390625 C 22.765625 -3.640625 21.351562 -2.269531 19.5625 -1.28125 C 17.769531 -0.300781 15.757812 0.1875 13.53125 0.1875 Z M 13.53125 -1.9375 C 15.3125 -1.9375 16.921875 -2.335938 18.359375 -3.140625 C 19.796875 -3.941406 20.921875 -5.054688 21.734375 -6.484375 C 22.546875 -7.910156 22.953125 -9.503906 22.953125 -11.265625 C 22.953125 -13.023438 22.546875 -14.617188 21.734375 -16.046875 C 20.921875 -17.472656 19.796875 -18.585938 18.359375 -19.390625 C 16.921875 -20.203125 15.3125 -20.609375 13.53125 -20.609375 C 11.75 -20.609375 10.128906 -20.203125 8.671875 -19.390625 C 7.222656 -18.585938 6.085938 -17.472656 5.265625 -16.046875 C 4.441406 -14.617188 4.03125 -13.023438 4.03125 -11.265625 C 4.03125 -9.503906 4.441406 -7.910156 5.265625 -6.484375 C 6.085938 -5.054688 7.222656 -3.941406 8.671875 -3.140625 C 10.128906 -2.335938 11.75 -1.9375 13.53125 -1.9375 Z M 13.53125 -1.9375 "/></g></g><g style="fill:#1d3557;fill-opacity:1;"><g transform="translate(185.55734, 324.116816)"><path style="stroke:none" d="M 6.046875 -20.484375 L 6.046875 -11.625 L 17.71875 -11.625 L 17.71875 -9.5625 L 6.046875 -9.5625 L 6.046875 0 L 3.671875 0 L 3.671875 -22.546875 L 19.125 -22.546875 L 19.125 -20.484375 Z M 6.046875 -20.484375 "/></g></g><g style="fill:#1d3557;fill-opacity:1;"><g transform="translate(218.814349, 324.116816)"><path style="stroke:none" d="M 3.671875 -22.546875 L 6.046875 -22.546875 L 6.046875 0 L 3.671875 0 Z M 3.671875 -22.546875 "/></g></g><g style="fill:#1d3557;fill-opacity:1;"><g transform="translate(241.416017, 324.116816)"><path style="stroke:none" d="M 22.515625 -22.546875 L 22.515625 0 L 20.546875 0 L 6.046875 -18.296875 L 6.046875 0 L 3.671875 0 L 3.671875 -22.546875 L 5.640625 -22.546875 L 20.15625 -4.25 L 20.15625 -22.546875 Z M 22.515625 -22.546875 "/></g></g><g style="fill:#1d3557;fill-opacity:1;"><g transform="translate(280.467455, 324.116816)"><path style="stroke:none" d="M 19.546875 -11.265625 L 21.828125 -11.265625 L 21.828125 -2.671875 C 20.773438 -1.742188 19.53125 -1.035156 18.09375 -0.546875 C 16.65625 -0.0546875 15.144531 0.1875 13.5625 0.1875 C 11.300781 0.1875 9.269531 -0.300781 7.46875 -1.28125 C 5.664062 -2.269531 4.25 -3.640625 3.21875 -5.390625 C 2.1875 -7.140625 1.671875 -9.097656 1.671875 -11.265625 C 1.671875 -13.441406 2.1875 -15.398438 3.21875 -17.140625 C 4.25 -18.890625 5.664062 -20.257812 7.46875 -21.25 C 9.269531 -22.238281 11.3125 -22.734375 13.59375 -22.734375 C 15.3125 -22.734375 16.890625 -22.457031 18.328125 -21.90625 C 19.765625 -21.363281 20.976562 -20.554688 21.96875 -19.484375 L 20.484375 -17.96875 C 18.703125 -19.726562 16.4375 -20.609375 13.6875 -20.609375 C 11.863281 -20.609375 10.210938 -20.203125 8.734375 -19.390625 C 7.265625 -18.585938 6.113281 -17.472656 5.28125 -16.046875 C 4.445312 -14.617188 4.03125 -13.023438 4.03125 -11.265625 C 4.03125 -9.503906 4.445312 -7.914062 5.28125 -6.5 C 6.113281 -5.082031 7.257812 -3.96875 8.71875 -3.15625 C 10.1875 -2.34375 11.832031 -1.9375 13.65625 -1.9375 C 15.96875 -1.9375 17.929688 -2.515625 19.546875 -3.671875 Z M 19.546875 -11.265625 "/></g></g><g clip-rule="nonzero" clip-path="url(#1a40f7180a)"><path style=" stroke:none;fill-rule:nonzero;fill:#daa520;fill-opacity:1;" d="M 298.882812 89.105469 L 235.316406 105.675781 L 140.445312 42.851562 L 140.445312 130.421875 L 119.695312 135.824219 L 75.863281 120.34375 L 75.863281 230.199219 L 298.882812 230.199219 Z M 294.8125 94.378906 L 294.8125 226.128906 L 265.648438 226.128906 L 265.648438 187.382812 L 240.054688 178.359375 L 240.054688 108.804688 L 239.921875 108.710938 Z M 119.101562 140.222656 L 140.445312 147.789062 L 140.445312 226.183594 L 118.917969 226.183594 L 118.917969 140.261719 L 119.101562 140.261719 Z M 144.421875 149.101562 L 236.058594 181.484375 L 236.058594 226.09375 L 144.421875 226.09375 Z M 144.421875 133.53125 L 234.726562 109.988281 L 236.058594 110.855469 L 236.058594 176.898438 L 144.421875 144.515625 Z M 239.996094 182.851562 L 261.285156 190.363281 L 261.285156 226.035156 L 239.996094 226.035156 L 239.996094 182.796875 Z M 144.421875 50.230469 L 230.160156 107.027344 L 144.421875 129.367188 Z M 140.445312 134.621094 L 140.445312 143.144531 L 126.519531 138.246094 Z M 80.171875 126.425781 L 114.847656 138.707031 L 114.847656 226.128906 L 80.171875 226.128906 Z M 80.171875 126.425781 "/></g></g></svg>